<svg xmlns="http://www.w3.org/2000/svg" viewBox="0 0 140.04 22.9"><defs><style>.cls-1{fill:#fff;}</style></defs><g id="Capa_2" data-name="Capa 2"><g id="Capa_1-2" data-name="Capa 1"><g id="Capa_2-2" data-name="Capa 2"><g id="Capa_1-2-2" data-name="Capa 1-2"><path class="cls-1" d="M19.22,7.87A1.72,1.72,0,0,1,17.5,9.6H14.56a2.93,2.93,0,0,0,0,5.85H16.2V22.9H11.35V20a3.25,3.25,0,0,0-6.5,0V22.9H0V15.45H1.63a2.93,2.93,0,1,0,0-5.85H0V6.14H6.59a3.25,3.25,0,1,1,3,0h7.9a1.72,1.72,0,0,1,1.72,1.73Z"/><path class="cls-1" d="M40.49,12.53a2.91,2.91,0,0,0,2.91,2.92H45V22.9H40.18V20a3.25,3.25,0,0,0-6.49,0h0V22.9H28.84V15.45h1.62a2.93,2.93,0,1,0,0-5.85H27.54a1.73,1.73,0,0,1,0-3.46h7.89a3.25,3.25,0,1,1,3,0H45V9.6H43.41a2.91,2.91,0,0,0-2.92,2.93Z"/><path class="cls-1" d="M32.69,12.53a2.21,2.21,0,0,1-2.21,2.21H28.25v8.15H25.12V20.67a2.6,2.6,0,0,0-5.2,0h0v2.22H16.8V14.75H14.56a2.23,2.23,0,0,1,0-4.45H21a2.6,2.6,0,1,1,3.63-.6,2.8,2.8,0,0,1-.59.6h6.42a2.21,2.21,0,0,1,2.23,2.21Z"/><path class="cls-1" d="M70,22.89H66V18.6h-8v4.28h-4V10A9,9,0,0,1,56.43,4,8,8,0,0,1,59,2.12a7.53,7.53,0,0,1,6.21,0A8,8,0,0,1,67.7,4a8.5,8.5,0,0,1,1.69,2.73A8.69,8.69,0,0,1,70,10Zm-4-8.57V10a4.58,4.58,0,0,0-.31-1.67A4.27,4.27,0,0,0,64.88,7a4,4,0,0,0-1.27-.92,3.71,3.71,0,0,0-3.09,0A4,4,0,0,0,59.25,7a4.27,4.27,0,0,0-.85,1.36A4.58,4.58,0,0,0,58.09,10v4.29Z"/><path class="cls-1" d="M88.26,1.45,81.73,22.89h-4L71.23,1.45h4.53l4,14.31,4-14.31Z"/><path class="cls-1" d="M94.15,22.89h-4V1.45h4Z"/><path class="cls-1" d="M113.79,12.17a11.42,11.42,0,0,1-.36,2.85,11,11,0,0,1-2.56,4.72,9.85,9.85,0,0,1-2,1.69,9.25,9.25,0,0,1-5,1.47h-6V1.45h6a8.8,8.8,0,0,1,2.65.38,9.83,9.83,0,0,1,2.38,1.08,10.54,10.54,0,0,1,2,1.69,11.19,11.19,0,0,1,2.92,7.58Zm-4,0a6.71,6.71,0,0,0-.46-2.5,6.47,6.47,0,0,0-1.27-2,6,6,0,0,0-1.9-1.38,5.5,5.5,0,0,0-2.33-.51h-2V18.6h2a5.53,5.53,0,0,0,2.33-.51,6.11,6.11,0,0,0,1.9-1.37,6.41,6.41,0,0,0,1.27-2A6.85,6.85,0,0,0,109.8,12.17Z"/><path class="cls-1" d="M120.41,22.89h-4V1.45h4Z"/><path class="cls-1" d="M128.08,22.89h-4V1.45h8a7.19,7.19,0,0,1,2.11.31,7.63,7.63,0,0,1,1.89.84A7.75,7.75,0,0,1,137.68,4,8.35,8.35,0,0,1,139,5.69a9.51,9.51,0,0,1,.81,2.05,9.18,9.18,0,0,1,0,4.42,8.8,8.8,0,0,1-.73,2,7.9,7.9,0,0,1-1.18,1.73,7.55,7.55,0,0,1-1.55,1.38l2.21,5.61H134.3l-1.73-4.32-4.46,0Zm0-17.15v8.58h4a3.59,3.59,0,0,0,1.54-.33,4.09,4.09,0,0,0,1.26-.92,4.25,4.25,0,0,0,.85-1.37,4.69,4.69,0,0,0,0-3.34A4.1,4.1,0,0,0,134.87,7a3.94,3.94,0,0,0-1.26-.92,3.6,3.6,0,0,0-1.54-.34Z"/></g></g></g></g></svg>